#!OML:ASF H:\GeneralSubjects\Female5\Project 1\Capture day 1\Session 1\Female5.ASF
:FULLY-SPECIFIED
:DEGREES
146
root -23.6793 15.9289 -0.148712 -156.994 73.0695 192.576
lowerback 4.70196 2.82499 6.92334
upperback -11.6188 5.56163 1.42911
thorax -15.0847 2.18881 -3.26957
lowerneck -23.9656 -8.89094 -14.9537
upperneck 46.0762 -6.92598 5.8898
head 27.834 -3.70111 5.10867
rclavicle 6.65929e-015 -1.35174e-014
rhumerus 13.9036 -39.402 -54.0107
rradius 44.4758
rwrist -68.6284
rhand -42.6389 -60.236
rfingers 7.12502
rthumb -15.5106 -89.6339
lclavicle 6.65929e-015 -1.35174e-014
lhumerus -51.1364 15.9812 61.1718
lradius 42.7156
lwrist 0.463065
lhand -18.3236 36.8108
lfingers 7.12502
lthumb 7.95805 66.641
rfemur 15.4867 31.4963 40.8607
rtibia -5.81813
rfoot -43.6473 -34.463
rtoes 4.65368
lfemur -26.0997 -20.844 -15.098
ltibia 21.1417
lfoot -13.6485 10.8421
ltoes -77.4042
147
root -23.6846 15.9303 -0.108659 -156.914 72.444 192.597
lowerback 4.6774 2.68259 7.0267
upperback -11.6103 5.37524 1.41184
thorax -15.0689 2.0888 -3.31405
lowerneck -24.0565 -8.97167 -14.9651
upperneck 45.815 -7.21083 6.07757
head 27.6394 -3.7765 5.10487
rclavicle 1.63997e-014 1.19271e-014
rhumerus 12.0949 -42.9783 -52.3018
rradius 45.7153
rwrist -67.1552
rhand -45.6442 -57.9471
rfingers 7.12502
rthumb -18.4035 -87.0965
lclavicle 1.63997e-014 1.19271e-014
lhumerus -50.8645 15.3284 61.7479
lradius 43.2837
lwrist 0.633029
lhand -18.2299 36.1836
lfingers 7.12502
lthumb 8.04847 66.0104
rfemur 15.2629 31.0082 40.9961
rtibia -5.88538
rfoot -43.8362 -34.3219
rtoes 4.37538
lfemur -26.7344 -21.0939 -14.6818
ltibia 21.6355
lfoot -13.3196 10.424
ltoes -77.3833
148
root -23.6917 15.9323 -0.0658667 -156.966 71.8759 192.498
lowerback 4.73494 2.50635 7.09469
upperback -11.622 5.14561 1.37948
thorax -15.1375 1.9661 -3.356
lowerneck -24.1964 -8.96347 -14.782
upperneck 45.6124 -7.32929 6.06414
head 27.4238 -3.77933 4.98396
rclavicle -2.88238e-015 6.75868e-015
rhumerus 8.3795 -42.7989 -48.1828
rradius 47.1052
rwrist -65.6422
rhand -48.3785 -54.2568
rfingers 7.12502
rthumb -21.032 -83.1363
lclavicle -2.88238e-015 6.75868e-015
lhumerus -50.8302 14.6902 62.0446
lradius 43.8118
lwrist 0.464758
lhand -17.7136 35.6732
lfingers 7.12502
lthumb 8.5467 65.4803
rfemur 15.1227 30.7811 41.1874
rtibia -5.98167
rfoot -44.5229 -33.7722
rtoes 6.06256
lfemur -27.3253 -21.3361 -14.3043
ltibia 22.0697
lfoot -13.0879 10.1954
ltoes -77.3698
149
root -23.697 15.9354 -0.025812 -157.173 71.4276 192.269
lowerback 4.78768 2.32791 7.08261
upperback -11.6208 4.9012 1.36131
thorax -15.195 1.84699 -3.33431
lowerneck -24.4031 -8.88611 -14.4554
upperneck 45.4985 -7.27729 5.84765
head 27.249 -3.72069 4.76507
rclavicle -5.42682e-014 7.95139e-016
rhumerus 4.4599 -41.1091 -43.6186
rradius 48.0046
rwrist -65.3114
rhand -47.2695 -53.5665
rfingers 7.12502
rthumb -19.9664 -82.5608
lclavicle -5.42682e-014 7.95139e-016
lhumerus -50.925 14.0379 62.2396
lradius 44.2254
lwrist 0.308102
lhand -17.2216 35.5696
lfingers 7.12502
lthumb 9.02154 65.3567
rfemur 15.1264 30.7038 41.3728
rtibia -6.18763
rfoot -45.1137 -34.4339
rtoes 6.08252
lfemur -27.7606 -21.5064 -14.0485
ltibia 22.3651
lfoot -12.9379 10.0358
ltoes -77.3625
150
root -23.702 15.9375 0.0151744 -157.085 71.0951 192.354
lowerback 4.82904 2.15896 7.14158
upperback -11.6149 4.68308 1.38376
thorax -15.2373 1.73648 -3.30912
lowerneck -24.5804 -8.7386 -14.1165
upperneck 45.4056 -7.10909 5.63179
head 27.0562 -3.62195 4.58523
rclavicle 2.73329e-014 3.97569e-016
rhumerus 1.08171 -38.8999 -39.6453
rradius 48.7665
rwrist -65.7923
rhand -46.9263 -52.9613
rfingers 7.12502
rthumb -19.6365 -81.9895
lclavicle 2.73329e-014 3.97569e-016
lhumerus -51.0049 13.369 62.4228
lradius 44.4346
lwrist 0.329087
lhand -17.0727 35.4707
lfingers 7.12502
lthumb 9.16515 65.2515
rfemur 15.1355 30.6742 41.6378
rtibia -6.41722
rfoot -44.1073 -34.9666
rtoes 4.72615
lfemur -28.0723 -21.4753 -13.7397
ltibia 22.548
lfoot -12.9982 9.69891
ltoes -77.3643
151
root -23.7089 15.939 0.0570609 -157.028 70.9862 192.456
lowerback 4.93062 2.01708 7.23251
upperback -11.5925 4.50575 1.3974
thorax -15.2915 1.63854 -3.32037
lowerneck -24.6546 -8.56642 -13.9801
upperneck 45.3396 -6.90451 5.64784
head 26.9216 -3.52678 4.61804
rclavicle -5.96354e-015 -1.78906e-014
rhumerus -1.84533 -36.5824 -36.5219
rradius 49.8698
rwrist -66.7056
rhand -46.949 -52.6892
rfingers 7.12502
rthumb -19.6583 -81.7153
lclavicle -5.96354e-015 -1.78906e-014
lhumerus -51.0862 12.9877 62.3816
lradius 44.3828
lwrist 0.0551982
lhand -16.9746 35.3154
lfingers 7.12502
lthumb 9.25985 65.092
rfemur 15.2768 31.0008 42.008
rtibia -6.57574
rfoot -44.0526 -36.1913
rtoes 3.23138
lfemur -28.1266 -21.3374 -13.5266
ltibia 22.5291
lfoot -12.9024 9.40021
ltoes -77.3653
152
root -23.7179 15.9389 0.0982028 -157.308 71.0903 192.249
lowerback 5.07009 1.91441 7.28933
upperback -11.52 4.36095 1.35095
thorax -15.2999 1.5542 -3.38466
lowerneck -24.786 -8.40664 -13.8627
upperneck 45.2973 -6.67704 5.6196
head 26.8397 -3.43483 4.63567
rclavicle 4.48259e-014 2.90226e-014
rhumerus -3.99979 -35.0759 -34.5691
rradius 51.1307
rwrist -66.3575
rhand -46.7298 -52.283
rfingers 7.12502
rthumb -19.4476 -81.3305
lclavicle 4.48259e-014 2.90226e-014
lhumerus -50.9921 12.9982 62.1316
lradius 44.0242
lwrist -0.437179
lhand -16.8456 35.2467
lfingers 7.12502
lthumb 9.38432 65.0178
rfemur 15.5093 31.4796 42.2902
rtibia -6.67436
rfoot -42.9837 -36.8565
rtoes 1.46617
lfemur -28.0375 -21.1365 -13.5211
ltibia 22.465
lfoot -13.0189 9.4015
ltoes -77.37
153
root -23.7298 15.9375 0.139637 -157.361 71.3103 192.287
lowerback 5.2493 1.84418 7.4141
upperback -11.4381 4.27124 1.30338
thorax -15.3141 1.48693 -3.49844
lowerneck -24.985 -8.21922 -13.5083
upperneck 45.2811 -6.3621 5.26348
head 26.7102 -3.30401 4.41866
rclavicle 7.85199e-015 9.93923e-015
rhumerus -5.35008 -34.4989 -33.5926
rradius 52.2145
rwrist -64.3586
rhand -46.3686 -51.6617
rfingers 7.12502
rthumb -19.1001 -80.7438
lclavicle 7.85199e-015 9.93923e-015
lhumerus -50.726 13.1106 61.8228
lradius 43.4438
lwrist -0.706304
lhand -17.0344 35.3829
lfingers 7.12502
lthumb 9.20219 65.1621
rfemur 15.4927 31.4538 42.3741
rtibia -6.61778
rfoot -42.3706 -36.8085
rtoes 1.07714
lfemur -27.9719 -20.8116 -13.4605
ltibia 22.4932
lfoot -13.5492 9.42939
ltoes -77.3905
154
root -23.7457 15.937 0.181538 -157.367 71.7329 192.352
lowerback 5.45925 1.8186 7.54087
upperback -11.383 4.24402 1.21509
thorax -15.3715 1.44313 -3.67198
lowerneck -25.0949 -7.97492 -13.2171
upperneck 45.2701 -5.96301 4.99191
head 26.5538 -3.14721 4.29755
rclavicle 2.18663e-015 -7.15625e-015
rhumerus -6.22905 -34.1585 -33.2735
rradius 53.296
rwrist -61.879
rhand -46.1619 -51.3849
rfingers 7.12502
rthumb -18.9014 -80.4865
lclavicle 2.18663e-015 -7.15625e-015
lhumerus -50.5239 13.2486 61.3837
lradius 42.8606
lwrist -0.742257
lhand -17.1435 35.4066
lfingers 7.12502
lthumb 9.09684 65.1905
rfemur 15.2372 30.9958 42.1495
rtibia -6.47738
rfoot -43.3868 -35.9453
rtoes 3.77933
lfemur -27.848 -20.4574 -13.4254
ltibia 22.4522
lfoot -13.8091 9.56417
ltoes -77.3981
155
root -23.7645 15.9356 0.222331 -157.509 72.2938 192.267
lowerback 5.65016 1.82329 7.66173
upperback -11.3044 4.24154 1.06465
thorax -15.3789 1.40781 -3.91395
lowerneck -25.1718 -7.70604 -13.0943
upperneck 45.2158 -5.62589 5.09464
head 26.4278 -3.0013 4.43056
rclavicle -3.77691e-014 -1.07344e-014
rhumerus -7.20716 -33.5369 -33.128
rradius 54.8567
rwrist -60.1941
rhand -46.0975 -51.6458
rfingers 7.12502
rthumb -18.8395 -80.7535
lclavicle -3.77691e-014 -1.07344e-014
lhumerus -50.3573 13.524 60.7777
lradius 42.3601
lwrist -0.885406
lhand -16.7917 35.2421
lfingers 7.12502
lthumb 9.43636 65.0109
rfemur 14.9831 30.5094 41.7753
rtibia -6.43618
rfoot -42.1686 -35.5299
rtoes 3.24058
lfemur -27.6349 -20.1349 -13.472
ltibia 22.3098
lfoot -13.5489 9.71157
ltoes -77.3767
156
root -23.783 15.9335 0.258672 -157.573 72.8743 192.262
lowerback 5.75085 1.84143 7.78753
upperback -11.2091 4.24707 0.909806
thorax -15.3051 1.3804 -4.15903
lowerneck -25.2282 -7.48384 -12.8715
upperneck 45.1748 -5.42929 5.19211
head 26.3306 -2.88281 4.50004
rclavicle -5.28767e-014 -2.98177e-014
rhumerus -8.24056 -32.9872 -33.2091
rradius 56.8762
rwrist -58.9805
rhand -45.8278 -51.8292
rfingers 7.12502
rthumb -18.58 -80.9618
lclavicle -5.28767e-014 -2.98177e-014
lhumerus -50.1777 13.726 60.2073
lradius 41.9462
lwrist -0.958176
lhand -16.6239 35.4761
lfingers 7.12502
lthumb 9.59819 65.2375
rfemur 14.6814 29.8838 41.3501
rtibia -6.38495
rfoot -40.8591 -35.0094
rtoes 2.71185
lfemur -27.3786 -19.8741 -13.5145
ltibia 22.1408
lfoot -13.4447 9.7293
ltoes -77.3674
157
root -23.8031 15.933 0.293099 -157.62 73.4682 192.233
lowerback 5.78534 1.87164 7.8411
upperback -11.1823 4.26744 0.763061
thorax -15.276 1.36939 -4.35677
lowerneck -25.1654 -7.34214 -12.5845
upperneck 45.2641 -5.31106 5.11813
head 26.3278 -2.79628 4.44101
rclavicle -1.27719e-014 -1.59028e-015
rhumerus -8.97264 -32.4828 -33.6922
rradius 58.8184
rwrist -57.7502
rhand -45.4473 -51.5277
rfingers 7.12502
rthumb -18.214 -80.695
lclavicle -1.27719e-014 -1.59028e-015
lhumerus -50.1889 13.798 59.6701
lradius 41.7234
lwrist -0.884073
lhand -16.9643 35.9712
lfingers 7.12502
lthumb 9.26981 65.7475
rfemur 14.156 28.9314 40.7415
rtibia -6.20138
rfoot -39.2259 -34.3269
rtoes 1.53227
lfemur -27.2031 -19.5502 -13.5709
ltibia 22.0812
lfoot -13.8332 9.91157
ltoes -77.3721
158
root -23.8275 15.9335 0.327737 -157.38 74.0813 192.465
lowerback 5.8846 1.91684 7.95907
upperback -11.1674 4.32804 0.630905
thorax -15.2973 1.36829 -4.5855
lowerneck -25.1517 -7.22542 -12.3858
upperneck 45.3266 -5.20558 5.08569
head 26.3386 -2.72819 4.41893
rclavicle -8.94531e-016 1.27222e-014
rhumerus -9.514 -31.8315 -34.4243
rradius 60.7355
rwrist -56.6113
rhand -45.2847 -51.3756
rfingers 7.12502
rthumb -18.0576 -80.5574
lclavicle -8.94531e-016 1.27222e-014
lhumerus -50.2157 13.7815 59.2506
lradius 41.6649
lwrist -0.629988
lhand -17.3144 36.126
lfingers 7.12502
lthumb 8.93199 65.9169
rfemur 13.443 27.8404 40.0821
rtibia -5.90966
rfoot -37.2926 -33.6122
rtoes -0.558429
lfemur -27.155 -19.0923 -13.5224
ltibia 22.1642
lfoot -14.1359 10.1525
ltoes -77.3606
